<svg xmlns="http://www.w3.org/2000/svg" xmlns:xlink="http://www.w3.org/1999/xlink" width="392.753" height="485.695" viewBox="0 0 392.753 485.695">
  <defs>
    <clipPath id="clip-path">
      <rect id="Ret칙ngulo_234" data-name="Ret칙ngulo 234" width="392.753" height="485.695" fill="#90DEFF"/>
    </clipPath>
  </defs>
  <g id="Grupo_1352" data-name="Grupo 1352" opacity="0.20">
    <path id="Caminho_702" data-name="Caminho 702" d="M895.939,156.119a37.416,37.416,0,0,0-26.338,8.645c-13.21-19.753-45.369-21.962-61.894-9.048a33.234,33.234,0,0,0-6.689,7.03,37.921,37.921,0,0,0-26.148-8.135c-12.085.573-25.168,6.754-32.411,19.222a29.207,29.207,0,0,0-19.329-4.29c-14.167,1.912-26.187,14.124-32.984,33.537-9.069,25.955-10.366,74.828-2.762,104.628,6.117,24.129,24.045,33.156,38.253,31.456A27.892,27.892,0,0,0,737,334.937a33.836,33.836,0,0,0,9.729,15.42,37.483,37.483,0,0,0,24.787,8.921,38.62,38.62,0,0,0,26.21-10,33.324,33.324,0,0,0,5.778,6.1c6.945,5.607,16.226,8.687,26.1,8.687,12.4,0,24.852-4.97,32.348-14.613a37.475,37.475,0,0,0,21.24,11.108,40.784,40.784,0,0,0,6.671.531c16.5,0,34.471-9.43,41.183-29.587,2.8-8.432,5.247-29.885,6.181-54.608,1.848,16.673,2.739,31.966,2.739,41.2,0,16.4-14.378,44.986-34.217,50.869-6.8,2-13.106,4.036-19.052,5.947-12.17,3.908-22.705,7.264-32.837,9.006-7.413,1.275-12.573.425-16.354-1.359a15.837,15.837,0,1,0-15.7,17.056,15.62,15.62,0,0,0,6.926-1.742,37.851,37.851,0,0,0,18.2,4.311,60.894,60.894,0,0,0,9.918-.891c11.343-1.954,22.409-5.5,35.237-9.622,5.82-1.869,12-3.845,18.649-5.82,29.015-8.581,46.834-45.262,46.834-67.755,0-15.824-4.608-100.443-26.167-128.714C926.206,169.712,913.207,157.2,895.939,156.119Zm18.393,169.834c-4.714,14.209-17.947,18.861-28.333,17.2-3.973-.637-16.991-4.035-16.991-20.56V247.917a8.8,8.8,0,1,0-17.609,0v80.138c0,14.528-13.7,18.415-21.793,18.415-5.777,0-11.278-1.763-15.059-4.821-4.013-3.229-6.051-7.816-6.051-13.593V247.917a8.8,8.8,0,1,0-17.609,0v75.359c0,14.528-12.191,18.415-19.371,18.415a20.214,20.214,0,0,1-13.189-4.588c-3.7-3.25-5.586-7.9-5.586-13.848l-.277-69.9a8.842,8.842,0,0,0-8.835-8.772h-.021a8.816,8.816,0,0,0-8.772,8.836l.212,48.384a8.463,8.463,0,0,0-.212,1c0,10.769-4.355,18.011-11.385,18.882-6.735.807-15.527-4.524-19.01-18.309-6.754-26.592-5.651-71.621,2.315-94.475,4.461-12.744,11.469-20.921,18.734-21.92,4.8-.616,9.728,2.081,13.443,7.476a8.8,8.8,0,0,0,15.931-3.59c2.146-13.147,12.17-18.266,20.837-18.67,7.539-.276,16.991,2.761,19.583,12.68a8.81,8.81,0,0,0,17.33-2.23c0-5.586,2-9.983,5.948-13.062,3.824-3,9.41-4.694,15.356-4.694,8.2,0,23.725,3.993,23.725,19.074a8.8,8.8,0,0,0,17.077,2.994,20.438,20.438,0,0,1,20.115-13.275c9.855.637,17.225,8.581,20.2,21.813C924.081,235.556,919.366,310.809,914.332,325.953Z" transform="translate(-617.148 82.883)" fill="#90deff"/>
    <g id="Grupo_de_m치scara_1" data-name="Grupo de m치scara 1" transform="translate(0)" clip-path="url(#clip-path)">
      <path id="Caminho_703" data-name="Caminho 703" d="M1045.252,470.779C1096.865,348.395,974.1,255.471,972.8,254.494a8.5,8.5,0,0,0-13.338,8.73c.4,1.7.7,3.292.935,4.8-21.922-64.038-109.96-126.653-114.271-129.691a8.489,8.489,0,0,0-13.338,7.816c15.164,146.321-32.71,193.729-63.359,198.677-5.289.829-9.218-.212-12.681-3.228-12.213-10.811-13.827-42.1-13.423-53.227a8.5,8.5,0,0,0-16.036-4.226c-41.036,79.352-54.524,142.094-40.526,187.144a21.659,21.659,0,1,0,16.057-5.82c-10.768-35.279-2.166-84.046,26.04-145.748,2.485,12.765,7.308,26.338,16.63,34.579,7.243,6.415,16.461,8.921,26.637,7.306,43.392-7.009,88.739-63.295,79.245-197.977,31.1,24.681,99.445,84.726,96.875,134.342a8.485,8.485,0,0,0,10.64,8.645c.85-.212,16.482-4.609,18.84-25.637,29.651,27.8,88.952,97.767,51.21,184.68a21.591,21.591,0,1,0,16.313,5.119Z" transform="translate(-665.063 -136.771)" fill="#90deff"/>
    </g>
  </g>
</svg>
