<svg xmlns="http://www.w3.org/2000/svg" xmlns:xlink="http://www.w3.org/1999/xlink" width="210" height="127" viewBox="0 0 210 127">
  <defs>
    <clipPath id="clip-path">
      <rect id="Retângulo_240" data-name="Retângulo 240" width="210" height="127" transform="translate(75.219 77.932)" fill="#fff" stroke="#707070" stroke-width="1"/>
    </clipPath>
    <clipPath id="clip-path-2">
      <rect id="Retângulo_234" data-name="Retângulo 234" width="93.53" height="115.663" fill="#fff" stroke="#707070" stroke-width="1"/>
    </clipPath>
  </defs>
  <g id="Grupo_de_máscara_2" data-name="Grupo de máscara 2" transform="translate(-75.219 -77.932)" clip-path="url(#clip-path)">
    <g id="Grupo_1395" data-name="Grupo 1395" transform="translate(4 -2)">
      <text id="Poder_compra" data-name="Poder
compra" transform="translate(181 135)" fill="#fff" font-size="28" font-family="Prometo-Bold, Prometo" font-weight="700"><tspan x="0" y="0">Poder</tspan><tspan y="0" font-size="19"></tspan><tspan x="0" y="22">compra</tspan></text>
      <text id="diário" transform="translate(181 173.674)" fill="#fff" font-size="15" font-family="Prometo-Bold, Prometo" font-weight="700"><tspan x="0" y="0">diário</tspan></text>
      <text id="de" transform="translate(260.233 138.631)" fill="#fff" font-size="19" font-family="Prometo-Bold, Prometo" font-weight="700"><tspan x="0" y="0">de</tspan></text>
    </g>
    <g id="Grupo_1455" data-name="Grupo 1455" transform="translate(75.777 78)">
      <path id="Caminho_702" data-name="Caminho 702" d="M733.267,149.647A8.91,8.91,0,0,0,727,151.706c-3.146-4.7-10.8-5.23-14.739-2.155a7.916,7.916,0,0,0-1.593,1.674,9.03,9.03,0,0,0-6.227-1.937,9.431,9.431,0,0,0-7.718,4.578,6.955,6.955,0,0,0-4.6-1.022c-3.374.455-6.236,3.364-7.855,7.987-2.16,6.181-2.469,17.819-.658,24.916,1.457,5.746,5.726,7.9,9.11,7.491a6.643,6.643,0,0,0,2.706-1.007,8.057,8.057,0,0,0,2.317,3.672,8.926,8.926,0,0,0,5.9,2.124,9.2,9.2,0,0,0,6.242-2.382,7.934,7.934,0,0,0,1.376,1.452,9.89,9.89,0,0,0,6.216,2.069,9.735,9.735,0,0,0,7.7-3.48,8.924,8.924,0,0,0,5.058,2.645,9.711,9.711,0,0,0,1.589.126,10.206,10.206,0,0,0,9.807-7.046c.668-2.008,1.249-7.117,1.472-13,.44,3.97.652,7.612.652,9.812,0,3.9-3.424,10.713-8.148,12.114-1.619.476-3.121.961-4.537,1.416a59.238,59.238,0,0,1-7.82,2.145,6.388,6.388,0,0,1-3.895-.324,3.771,3.771,0,1,0-3.738,4.062,3.72,3.72,0,0,0,1.649-.415,9.013,9.013,0,0,0,4.335,1.027,14.5,14.5,0,0,0,2.362-.212,62.32,62.32,0,0,0,8.391-2.291c1.386-.445,2.858-.916,4.441-1.386,6.91-2.043,11.153-10.779,11.153-16.135,0-3.768-1.1-23.919-6.231-30.652C740.475,152.884,737.379,149.9,733.267,149.647Zm4.38,40.444a6,6,0,0,1-6.747,4.1,4.634,4.634,0,0,1-4.046-4.9V171.508a2.1,2.1,0,1,0-4.193,0v19.084c0,3.46-3.263,4.385-5.19,4.385a5.782,5.782,0,0,1-3.586-1.148,3.943,3.943,0,0,1-1.441-3.237V171.508a2.1,2.1,0,1,0-4.193,0v17.946c0,3.46-2.9,4.385-4.613,4.385a4.814,4.814,0,0,1-3.141-1.093,4.176,4.176,0,0,1-1.33-3.3L699.1,172.8a2.106,2.106,0,0,0-2.1-2.089h-.005a2.1,2.1,0,0,0-2.089,2.1l.05,11.522a2.042,2.042,0,0,0-.05.238c0,2.564-1.037,4.289-2.711,4.5-1.6.192-3.7-1.077-4.527-4.36-1.608-6.333-1.346-17.056.551-22.5,1.062-3.035,2.731-4.982,4.461-5.22a3.482,3.482,0,0,1,3.2,1.78,2.1,2.1,0,0,0,3.794-.855,5.074,5.074,0,0,1,4.962-4.446c1.8-.066,4.046.657,4.664,3.02a2.1,2.1,0,0,0,4.127-.531,3.732,3.732,0,0,1,1.416-3.111,6.013,6.013,0,0,1,3.657-1.118c1.953,0,5.65.951,5.65,4.542a2.1,2.1,0,0,0,4.067.713A4.867,4.867,0,0,1,733,153.83c2.347.152,4.1,2.043,4.81,5.195C739.969,168.564,738.846,186.485,737.647,190.091Z" transform="translate(-666.876 -92.732)" fill="#fff" stroke="rgba(0,0,0,0)" stroke-width="1"/>
      <g id="Grupo_de_máscara_1" data-name="Grupo de máscara 1" transform="translate(0 0)" clip-path="url(#clip-path-2)">
        <path id="Caminho_703" data-name="Caminho 703" d="M767.021,216.311c12.291-29.144-16.945-51.273-17.253-51.506a2.024,2.024,0,0,0-3.176,2.079c.1.4.167.784.223,1.143-5.22-15.25-26.186-30.161-27.212-30.884A2.021,2.021,0,0,0,716.426,139c3.611,34.845-7.79,46.134-15.088,47.313a3.435,3.435,0,0,1-3.02-.769c-2.908-2.574-3.293-10.025-3.2-12.675a2.023,2.023,0,0,0-3.819-1.006c-9.772,18.9-12.984,33.838-9.651,44.566a5.158,5.158,0,1,0,3.824-1.386c-2.564-8.4-.516-20.015,6.2-34.708.592,3.04,1.74,6.272,3.96,8.234a7.487,7.487,0,0,0,6.343,1.74c10.333-1.669,21.132-15.073,18.871-47.146,7.405,5.877,23.682,20.176,23.07,31.992a2.02,2.02,0,0,0,2.534,2.059c.2-.051,3.925-1.1,4.487-6.105,7.061,6.621,21.183,23.282,12.195,43.979a5.142,5.142,0,1,0,3.885,1.219Z" transform="translate(-676.483 -136.771)" fill="#fff" stroke="rgba(0,0,0,0)" stroke-width="1"/>
      </g>
    </g>
  </g>
</svg>
